#!OML:ASF E:\acrobat2\Project_11_07_03\Capture day 1\Session 1\Acrobat.ASF
:FULLY-SPECIFIED
:DEGREES
965
root 12.4067 18.1451 38.2499 4.7648 -3.05122 -0.205488
lowerback -5.58119 0.528912 -1.12964
upperback -1.71263 0.788182 -1.33726
thorax 1.37064 0.391358 -0.686846
lowerneck 0.445813 -7.08178 -5.93854
upperneck 3.74878 -9.99413 13.131
head 2.00107 -4.89547 4.67649
rclavicle 1.18525e-014 -1.31198e-014
rhumerus -40.1434 -0.897546 -84.4831
rradius 25.3596
rwrist 7.21323
rhand 1.67197 -47.168
rfingers 7.12502
rthumb 27.1908 -75.2287
lclavicle 1.18525e-014 -1.31198e-014
lhumerus -34.6144 -8.27703 84.0797
lradius 18.0831
lwrist 6.89019
lhand -8.95646 -7.94858
lfingers 7.12502
lthumb 16.9883 21.3285
rfemur 3.444 11.004 17.0593
rtibia 0.273058
rfoot -17.5487 -23.4176
rtoes -8.06009
lfemur 2.69904 -2.26934 -12.3673
ltibia 1.63173
lfoot -13.9616 3.14775
ltoes 21.0335
966
root 12.4082 18.1455 38.2532 4.76922 -2.9037 -0.0827795
lowerback -5.6134 0.521466 -1.24568
upperback -1.72694 0.7857 -1.37193
thorax 1.37275 0.390057 -0.657325
lowerneck 0.361673 -7.135 -5.92524
upperneck 3.79749 -10.067 13.0913
head 2.03386 -4.9275 4.65496
rclavicle 1.41634e-015 -3.97569e-016
rhumerus -40.2408 -1.04399 -84.4099
rradius 25.1203
rwrist 7.31808
rhand 1.73154 -47.2061
rfingers 7.12502
rthumb 27.2478 -75.2579
lclavicle 1.41634e-015 -3.97569e-016
lhumerus -34.5302 -8.55423 84.3285
lradius 18.256
lwrist 7.15104
lhand -8.93356 -7.89655
lfingers 7.12502
lthumb 17.0104 21.3787
rfemur 3.46694 10.9821 16.9231
rtibia 0.282141
rfoot -17.5659 -23.5706
rtoes -8.36456
lfemur 2.66982 -2.36692 -12.5341
ltibia 1.62106
lfoot -13.9202 3.12404
ltoes 21.1531
967
root 12.4103 18.1465 38.257 4.77226 -2.74603 0.0329195
lowerback -5.64623 0.510434 -1.34336
upperback -1.74515 0.777417 -1.40537
thorax 1.37145 0.385897 -0.637258
lowerneck 0.333751 -7.1849 -5.91733
upperneck 3.79563 -10.1314 13.0503
head 2.04181 -4.95895 4.63733
rclavicle -1.50828e-014 1.74931e-014
rhumerus -40.3718 -1.06975 -84.3982
rradius 24.9419
rwrist 7.33372
rhand 1.81211 -47.2923
rfingers 7.12502
rthumb 27.3249 -75.332
lclavicle -1.50828e-014 1.74931e-014
lhumerus -34.4517 -8.81959 84.5821
lradius 18.4255
lwrist 7.39614
lhand -8.91685 -7.86495
lfingers 7.12502
lthumb 17.0265 21.4089
rfemur 3.50168 10.9164 16.7892
rtibia 0.27892
rfoot -17.6203 -23.6793
rtoes -8.53122
lfemur 2.64268 -2.4678 -12.6974
ltibia 1.61129
lfoot -13.8714 3.10833
ltoes 21.1265
968
root 12.4126 18.1478 38.2618 4.7626 -2.57927 0.127285
lowerback -5.67809 0.495371 -1.41464
upperback -1.76154 0.762269 -1.43282
thorax 1.37175 0.378327 -0.626305
lowerneck 0.370436 -7.22427 -5.90579
upperneck 3.73891 -10.1778 13.0128
head 2.02113 -4.98526 4.62457
rclavicle -8.32411e-015 3.85642e-014
rhumerus -40.5312 -1.01259 -84.4327
rradius 24.821
rwrist 7.28246
rhand 1.89544 -47.4078
rfingers 7.12502
rthumb 27.4046 -75.4349
lclavicle -8.32411e-015 3.85642e-014
lhumerus -34.3866 -9.06388 84.8353
lradius 18.605
lwrist 7.64114
lhand -8.89579 -7.85072
lfingers 7.12502
lthumb 17.0467 21.4213
rfemur 3.57327 10.8447 16.6873
rtibia 0.244518
rfoot -17.6756 -23.7929
rtoes -8.73109
lfemur 2.63741 -2.55278 -12.8355
ltibia 1.59768
lfoot -13.8052 3.05842
ltoes 21.1751
969
root 12.4152 18.149 38.2678 4.73407 -2.40594 0.200599
lowerback -5.71042 0.47931 -1.46203
upperback -1.76875 0.744635 -1.45568
thorax 1.38201 0.369475 -0.624152
lowerneck 0.447349 -7.25429 -5.87292
upperneck 3.64421 -10.2085 12.9692
head 1.97968 -5.00606 4.60963
rclavicle 4.34841e-016 1.31198e-014
rhumerus -40.704 -0.941359 -84.4767
rradius 24.745
rwrist 7.19908
rhand 1.96271 -47.5093
rfingers 7.12502
rthumb 27.4689 -75.5261
lclavicle 4.34841e-016 1.31198e-014
lhumerus -34.3334 -9.31033 85.0925
lradius 18.8058
lwrist 7.89987
lhand -8.88549 -7.85572
lfingers 7.12502
lthumb 17.0567 21.4155
rfemur 3.69117 10.801 16.6252
rtibia 0.178812
rfoot -17.7297 -23.932
rtoes -8.94063
lfemur 2.66572 -2.62885 -12.9494
ltibia 1.57534
lfoot -13.7331 2.96886
ltoes 21.3629
970
root 12.4176 18.1494 38.2744 4.69236 -2.23344 0.256924
lowerback -5.74314 0.467734 -1.49334
upperback -1.766 0.732291 -1.476
thorax 1.40292 0.363206 -0.628021
lowerneck 0.514236 -7.28266 -5.80947
upperneck 3.54895 -10.2357 12.9067
head 1.93686 -5.0246 4.58402
rclavicle 2.13694e-015 -1.15295e-014
rhumerus -40.8689 -0.943464 -84.4797
rradius 24.6896
rwrist 7.13599
rhand 2.02233 -47.5489
rfingers 7.12502
rthumb 27.5259 -75.5567
lclavicle 2.13694e-015 -1.15295e-014
lhumerus -34.2855 -9.57449 85.353
lradius 19.0307
lwrist 8.16508
lhand -8.89909 -7.88948
lfingers 7.12502
lthumb 17.0436 21.3829
rfemur 3.83552 10.7904 16.5965
rtibia 0.0996539
rfoot -17.7772 -24.1009
rtoes -9.15621
lfemur 2.71763 -2.69669 -13.0395
ltibia 1.54861
lfoot -13.6681 2.84451
ltoes 21.6895
971
root 12.4196 18.1487 38.2805 4.65173 -2.06974 0.290146
lowerback -5.77607 0.463265 -1.5051
upperback -1.75974 0.728321 -1.4912
thorax 1.42775 0.361105 -0.637001
lowerneck 0.537675 -7.31314 -5.73039
upperneck 3.48349 -10.2673 12.8356
head 1.90913 -5.04283 4.55091
rclavicle 9.11925e-015 -1.78906e-014
rhumerus -41.0105 -1.05956 -84.4182
rradius 24.6334
rwrist 7.14347
rhand 2.08241 -47.5207
rfingers 7.12502
rthumb 27.5834 -75.5193
lclavicle 9.11925e-015 -1.78906e-014
lhumerus -34.243 -9.84203 85.61
lradius 19.2806
lwrist 8.41951
lhand -8.92385 -7.94614
lfingers 7.12502
lthumb 17.0197 21.3283
rfemur 3.97849 10.8313 16.6056
rtibia 0.021562
rfoot -17.8473 -24.297
rtoes -9.28769
lfemur 2.76833 -2.75234 -13.094
ltibia 1.52429
lfoot -13.6021 2.72865
ltoes 21.9234
972
root 12.4211 18.1471 38.2855 4.6237 -1.92391 0.298168
lowerback -5.8075 0.467701 -1.49603
upperback -1.75903 0.734728 -1.49879
thorax 1.44621 0.364241 -0.649176
lowerneck 0.527911 -7.34322 -5.66406
upperneck 3.44353 -10.301 12.7833
head 1.89617 -5.06013 4.52356
rclavicle -4.63417e-015 4.37326e-015
rhumerus -41.1375 -1.2257 -84.3286
rradius 24.5847
rwrist 7.1885
rhand 2.10456 -47.4571
rfingers 7.12502
rthumb 27.6046 -75.4523
lclavicle -4.63417e-015 4.37326e-015
lhumerus -34.2086 -10.0986 85.8622
lradius 19.5501
lwrist 8.65475
lhand -8.95475 -8.02071
lfingers 7.12502
lthumb 16.99 21.2562
rfemur 4.09635 10.9194 16.649
rtibia -0.046656
rfoot -17.921 -24.524
rtoes -9.46296
lfemur 2.79979 -2.79268 -13.1084
ltibia 1.50412
lfoot -13.5269 2.65059
ltoes 21.9707
973
root 12.4221 18.1449 38.2891 4.61511 -1.80612 0.287516
lowerback -5.8369 0.480298 -1.47514
upperback -1.77071 0.750824 -1.49788
thorax 1.45085 0.372311 -0.658633
lowerneck 0.50183 -7.37095 -5.63376
upperneck 3.41923 -10.3344 12.7632
head 1.89396 -5.07626 4.51064
rclavicle -1.15171e-014 7.15625e-015
rhumerus -41.2548 -1.38634 -84.2418
rradius 24.5466
rwrist 7.24549
rhand 2.08324 -47.3908
rfingers 7.12502
rthumb 27.5842 -75.3893
lclavicle -1.15171e-014 7.15625e-015
lhumerus -34.1782 -10.3235 86.106
lradius 19.8233
lwrist 8.86726
lhand -8.99217 -8.1113
lfingers 7.12502
lthumb 16.954 21.1688
rfemur 4.17225 11.0587 16.714
rtibia -0.0904772
rfoot -18.0385 -24.7554
rtoes -9.48669
lfemur 2.80201 -2.81612 -13.0895
ltibia 1.49307
lfoot -13.4524 2.60748
ltoes 21.8938
974
root 12.423 18.143 38.2912 4.6259 -1.71761 0.264312
lowerback -5.86504 0.496621 -1.44592
upperback -1.79425 0.770945 -1.48911
thorax 1.44262 0.382471 -0.664469
lowerneck 0.471343 -7.38824 -5.65313
upperneck 3.4073 -10.3569 12.7867
head 1.89989 -5.08653 4.51867
rclavicle -1.6027e-015 6.36111e-015
rhumerus -41.3562 -1.52849 -84.1623
rradius 24.5088
rwrist 7.33252
rhand 2.06875 -47.3333
rfingers 7.12502
rthumb 27.5703 -75.334
lclavicle -1.6027e-015 6.36111e-015
lhumerus -34.1468 -10.5136 86.3429
lradius 20.0951
lwrist 9.07518
lhand -9.03317 -8.19501
lfingers 7.12502
lthumb 16.9145 21.0884
rfemur 4.2006 11.2183 16.7849
rtibia -0.10649
rfoot -18.1608 -24.9792
rtoes -9.44522
lfemur 2.77599 -2.83279 -13.0491
ltibia 1.49255
lfoot -13.393 2.60127
ltoes 21.6834
975
root 12.424 18.1416 38.2925 4.64767 -1.65274 0.231398
lowerback -5.89207 0.513207 -1.40619
upperback -1.82359 0.790541 -1.47518
thorax 1.42789 0.392406 -0.670971
lowerneck 0.459607 -7.39161 -5.71695
upperneck 3.38459 -10.3621 12.8556
head 1.9026 -5.08913 4.5491
rclavicle -2.31087e-015 1.90833e-014
rhumerus -41.4448 -1.62602 -84.1045
rradius 24.4773
rwrist 7.41926
rhand 2.09893 -47.2847
rfingers 7.12502
rthumb 27.5992 -75.2807
lclavicle -2.31087e-015 1.90833e-014
lhumerus -34.1173 -10.6969 86.5812
lradius 20.3734
lwrist 9.30383
lhand -9.08924 -8.26143
lfingers 7.12502
lthumb 16.8605 21.0266
rfemur 4.19816 11.3725 16.8555
rtibia -0.103346
rfoot -18.2996 -25.1586
rtoes -9.2514
lfemur 2.73575 -2.85133 -12.9955
ltibia 1.49914
lfoot -13.3582 2.59929
ltoes 21.5748
976
root 12.4253 18.1406 38.2936 4.67058 -1.60437 0.19086
lowerback -5.92063 0.5279 -1.35434
upperback -1.85193 0.806928 -1.4597
thorax 1.4152 0.400718 -0.682868
lowerneck 0.468932 -7.38344 -5.80837
upperneck 3.34967 -10.3526 12.9588
head 1.90006 -5.08544 4.5959
rclavicle 1.18028e-015 1.59028e-015
rhumerus -41.5283 -1.6681 -84.0787
rradius 24.4662
rwrist 7.47588
rhand 2.18197 -47.2586
rfingers 7.12502
rthumb 27.6786 -75.242
lclavicle 1.18028e-015 1.59028e-015
lhumerus -34.1001 -10.8988 86.8257
lradius 20.6669
lwrist 9.56286
lhand -9.16785 -8.32527
lfingers 7.12502
lthumb 16.7849 20.9692
rfemur 4.19057 11.5117 16.9262
rtibia -0.100986
rfoot -18.431 -25.3004
rtoes -8.9953
lfemur 2.69688 -2.87184 -12.9357
ltibia 1.51045
lfoot -13.3453 2.56537
ltoes 21.7696
